<svg width="63" height="63" viewBox="0 0 63 63" fill="none" xmlns="http://www.w3.org/2000/svg">
<g clip-path="url(#clip0_270_374)">
<path d="M0 32.9757V30.502C0.0375355 30.2487 0.0949427 29.9975 0.110398 29.7441C0.206268 28.0452 0.44484 26.3574 0.823568 24.699C2.01952 19.4553 4.51832 14.6031 8.08584 10.5968C11.6534 6.59064 16.1728 3.5616 21.2208 1.79354C24.2086 0.754197 27.3347 0.172805 30.4943 0.0688477H32.5874C34.4291 0.131878 36.2619 0.354961 38.0654 0.735608C44.9609 2.24471 50.7458 5.66964 55.3472 11.0415C60.1098 16.5978 62.6533 23.0854 62.958 30.4376V32.9824C62.931 34.3323 62.7997 35.678 62.565 37.0074C62.0499 40.1232 61.0663 43.142 59.6483 45.9598C57.1949 50.8802 53.5054 55.0691 48.9463 58.1104C45.2927 60.5736 41.1609 62.2274 36.8245 62.9622C36.7097 62.9822 36.5905 62.9866 36.4668 62.9977V40.8924H43.7774C44.2433 37.8342 44.7048 34.8026 45.1729 31.7244H36.458C36.458 31.6133 36.4403 31.5422 36.4403 31.4711C36.4403 29.533 36.4403 27.5927 36.4403 25.6547C36.4432 25.2326 36.4883 24.8119 36.575 24.3989C36.9018 22.8276 37.7894 21.7319 39.3129 21.1785C40.0433 20.933 40.8106 20.8172 41.5805 20.8362H45.5173V13.0573C45.4609 13.0331 45.4025 13.0138 45.3429 12.9996C44.7136 12.9107 44.0865 12.8084 43.4573 12.7462C42.3864 12.6373 41.3177 12.5239 40.2447 12.4662C38.6811 12.3351 37.1073 12.4061 35.5616 12.6773C33.9327 12.9693 32.3875 13.6181 31.0352 14.5776C29.1187 15.9733 27.9065 17.8647 27.2265 20.1206C26.7837 21.6468 26.5715 23.2314 26.5972 24.8212C26.5972 26.9949 26.5972 29.1707 26.5972 31.3466C26.5972 31.4666 26.5972 31.5844 26.584 31.7244H18.6353C18.5646 32.2223 18.5889 40.6524 18.6662 40.8968H26.5862V62.9955C26.4789 62.9899 26.3721 62.9788 26.266 62.9622C25.2371 62.7399 24.1971 62.5488 23.1749 62.271C18.3325 60.9274 13.8793 58.4382 10.1865 55.0109C6.49359 51.5837 3.66802 47.3176 1.94522 42.5682C0.909904 39.7191 0.293274 36.7331 0.114819 33.7047C0.094947 33.4602 0.0375355 33.218 0 32.9757Z" fill="white"/>
<path d="M62.9492 30.4352C62.9668 30.4331 62.9846 30.4331 63.0022 30.4352V32.9756H62.9757H62.9492V30.4352Z" fill="white"/>
<path d="M32.5764 0C32.5731 0.019119 32.5731 0.0386691 32.5764 0.0577881H30.4832C30.4843 0.0385409 30.4843 0.0192472 30.4832 0H32.5764Z" fill="white"/>
</g>
<defs>
<clipPath id="clip0_270_374">
<rect width="63" height="63" fill="white"/>
</clipPath>
</defs>
</svg>
