<svg width="63" height="63" viewBox="0 0 63 63" fill="none" xmlns="http://www.w3.org/2000/svg">
<g clip-path="url(#clip0_270_377)">
<path d="M31.5 0.00683594C25.2696 0.00683608 19.1791 1.85445 13.9988 5.31601C8.81855 8.77757 4.78112 13.6976 2.39716 19.4538C0.0131944 25.2101 -0.61022 31.544 0.605755 37.6546C1.82173 43.7652 4.82248 49.378 9.2285 53.7831C13.6345 58.1882 19.2479 61.1877 25.3587 62.4024C31.4696 63.6171 37.8034 62.9923 43.5592 60.6071C49.3149 58.2219 54.2341 54.1835 57.6945 49.0025C61.155 43.8214 63.0013 37.7306 63 31.5002C62.9982 23.147 59.6787 15.1366 53.7715 9.23062C47.8643 3.32466 39.8532 0.00683575 31.5 0.00683594V0.00683594ZM52.0473 20.3964C51.1866 21.6592 50.1569 22.7981 48.9869 23.7813C48.6802 24.0391 48.3602 24.2836 48.0423 24.5281C48.0081 24.5503 47.9806 24.5816 47.963 24.6185C47.9453 24.6553 47.9382 24.6963 47.9423 24.737C47.9557 24.9481 47.969 25.1593 47.9668 25.3704C47.9668 25.8949 47.9534 26.4172 47.9312 26.9417C47.9156 27.2974 47.8779 27.6507 47.8423 28.0063C47.8112 28.3219 47.7801 28.6398 47.7312 28.9554C47.5987 29.8529 47.4207 30.743 47.1978 31.6224C46.7267 33.4457 46.0559 35.2115 45.1975 36.8876C44.2881 38.66 43.1688 40.3166 41.8637 41.8216C40.1343 43.8258 38.0709 45.5154 35.765 46.8157C34.1321 47.743 32.3874 48.4578 30.5732 48.9426C29.8709 49.1315 29.1575 49.2805 28.444 49.4249C27.9995 49.5138 27.555 49.5694 27.0994 49.6294C26.277 49.7361 25.4525 49.7783 24.6235 49.8139C23.9567 49.8428 23.2766 49.8028 22.6032 49.7894C22.2365 49.7894 21.872 49.7361 21.5053 49.705C21.1385 49.6738 20.7852 49.6494 20.4295 49.5938C19.9161 49.5138 19.405 49.4138 18.8938 49.3094C17.4321 49.0082 16.0025 48.5684 14.6243 47.9958C14.2798 47.8536 13.9286 47.7225 13.5975 47.5513C12.6889 47.1149 11.8065 46.6258 10.9549 46.0867C10.9549 46.0667 10.9549 46.0467 10.9549 46.0267C11.4216 46.0578 11.8883 46.1022 12.3551 46.12C12.9783 46.1478 13.6027 46.1344 14.2242 46.08C14.5754 46.0489 14.9288 46.0067 15.2799 45.9578C18.1695 45.5474 20.9045 44.3992 23.2211 42.624C23.2544 42.5973 23.2855 42.5662 23.3477 42.5084C21.5853 42.463 19.8803 41.8722 18.4676 40.8174C17.055 39.7625 16.0041 38.2956 15.46 36.6187C16.0902 36.7339 16.731 36.7816 17.3713 36.7609C18.0087 36.7396 18.6412 36.6434 19.2561 36.4742C16.7757 35.8941 14.8843 34.5473 13.613 32.3692C12.8499 31.0628 12.4651 29.5699 12.5018 28.0575C13.6394 28.6868 14.9078 29.0429 16.2067 29.0976C16.2245 28.9998 16.1534 28.982 16.1089 28.9487C15.8467 28.7264 15.5755 28.5286 15.3222 28.3019C14.6789 27.727 14.1332 27.0515 13.7064 26.3017C13.2079 25.4356 12.8664 24.4883 12.6974 23.5035C12.5837 22.8297 12.5487 22.145 12.5929 21.4632C12.6315 20.9263 12.7208 20.3942 12.8596 19.8741C13.0408 19.1735 13.316 18.5007 13.6775 17.8738C13.6886 17.856 13.7042 17.8382 13.7264 17.8093C16.8038 21.5941 20.9592 24.3535 25.6414 25.7216C27.4458 26.2686 29.3135 26.5793 31.1977 26.6461C31.1644 26.4728 31.1311 26.3217 31.1066 26.1705C31.0822 26.0194 31.0533 25.8572 31.0399 25.6994C31.0177 25.4171 30.9933 25.1326 30.9955 24.8503C30.9955 24.4725 31.0066 24.0925 31.0466 23.7168C31.1476 22.8482 31.3861 22.0012 31.7534 21.2076C32.2424 20.1408 32.9467 19.1867 33.8223 18.4053C34.6978 17.6239 35.7255 17.032 36.8408 16.667C37.3533 16.4984 37.8811 16.38 38.4165 16.3136C39.0808 16.2322 39.7525 16.2322 40.4168 16.3136C42.1879 16.5039 43.8524 17.2536 45.1686 18.4539C45.2975 18.5695 45.422 18.6872 45.542 18.8117C45.5698 18.8488 45.6086 18.8762 45.6528 18.8902C45.6971 18.9041 45.7446 18.9039 45.7887 18.8895C47.5749 18.518 49.2902 17.8629 50.8694 16.9492L50.9272 16.9181H50.9872C50.9774 16.981 50.964 17.0434 50.9472 17.1048C50.2992 18.9274 49.0497 20.4748 47.4045 21.4921L47.3489 21.5365H47.4022C49.029 21.33 50.6201 20.903 52.1318 20.2675C52.0962 20.3075 52.074 20.3497 52.0473 20.3897V20.3964Z" fill="white"/>
</g>
<defs>
<clipPath id="clip0_270_377">
<rect width="63" height="63" fill="white"/>
</clipPath>
</defs>
</svg>
