<svg width="142" height="123" viewBox="0 0 142 123" fill="none" xmlns="http://www.w3.org/2000/svg">
<rect width="142" height="123" fill="white"/>
<path d="M22.0043 60.6275C22.0043 51.4408 22.0043 42.2508 22.0043 33.0575C21.9829 32.7968 22.0424 32.5359 22.1749 32.3104C22.3073 32.0849 22.5062 31.9057 22.7443 31.7975C32.4976 26.1975 42.2409 20.5808 51.9743 14.9475C58.1943 11.3608 64.4143 7.76413 70.6343 4.15747C71.2043 3.82747 71.6343 4.07747 72.0743 4.34747C77.1543 7.28747 82.2409 10.2208 87.3343 13.1475L119.944 31.9075C120.119 31.9928 120.265 32.1272 120.364 32.2941C120.464 32.461 120.512 32.6533 120.504 32.8475C120.504 51.3741 120.504 69.8975 120.504 88.4175C120.513 88.6105 120.466 88.8021 120.368 88.9689C120.271 89.1358 120.127 89.2707 119.954 89.3575L84.7843 109.697C80.4509 112.197 76.1176 114.701 71.7843 117.207C71.6072 117.327 71.3982 117.392 71.1843 117.392C70.9704 117.392 70.7614 117.327 70.5842 117.207L28.4443 92.7675C26.4443 91.6375 24.5443 90.4975 22.5743 89.3875C22.3789 89.295 22.2188 89.1418 22.1178 88.9507C22.0169 88.7596 21.9805 88.5409 22.0143 88.3275C22.0209 79.0941 22.0176 69.8608 22.0043 60.6275Z" fill="url(#paint0_linear_706_594)"/>
<path d="M22.0043 60.6275C22.0043 51.4408 22.0043 42.2508 22.0043 33.0575C21.9829 32.7968 22.0424 32.5359 22.1749 32.3104C22.3073 32.0849 22.5062 31.9057 22.7443 31.7975C32.4976 26.1975 42.2409 20.5808 51.9743 14.9475C58.1943 11.3608 64.4143 7.76413 70.6343 4.15747C71.2043 3.82747 71.6343 4.07747 72.0743 4.34747C77.1543 7.28747 82.2409 10.2208 87.3343 13.1475L119.944 31.9075C120.119 31.9928 120.265 32.1272 120.364 32.2941C120.464 32.461 120.512 32.6533 120.504 32.8475C120.504 51.3741 120.504 69.8975 120.504 88.4175C120.513 88.6105 120.466 88.8021 120.368 88.9689C120.271 89.1358 120.127 89.2707 119.954 89.3575L84.7843 109.697C80.4509 112.197 76.1176 114.701 71.7843 117.207C71.6072 117.327 71.3982 117.392 71.1843 117.392C70.9704 117.392 70.7614 117.327 70.5842 117.207L28.4443 92.7675C26.4443 91.6375 24.5443 90.4975 22.5743 89.3875C22.3789 89.295 22.2188 89.1418 22.1178 88.9507C22.0169 88.7596 21.9805 88.5409 22.0143 88.3275C22.0209 79.0941 22.0176 69.8608 22.0043 60.6275Z" fill="url(#paint1_linear_706_594)"/>
<path d="M71.524 14.1075L71.614 14.1575L111.444 37.5575V83.8575L71.524 107.107L71.434 107.057L31.604 83.8575V37.5575H31.694L71.524 14.1075ZM111.084 37.7675L71.524 14.5175L31.964 37.7675V83.6475L71.524 106.697L111.084 83.6475V37.7675Z" fill="#4F4E4E"/>
<path d="M71.5241 13.9075L71.7041 14.0175L111.624 37.4675V83.9675L71.5241 107.327L71.3441 107.217L31.4341 83.9675V37.4675L31.6041 37.3675L71.5241 13.9075ZM71.5241 14.3175L59.7841 21.1975L71.5241 14.3175ZM110.914 37.8775L71.5241 14.7375L32.1441 37.8775V83.5575L71.5241 106.497L110.914 83.5575V37.8775ZM111.264 37.6775L109.934 36.8975L111.264 37.6775ZM71.5241 106.907L96.3941 92.4275L71.5241 106.907L71.4341 106.857L60.2141 100.317L71.5241 106.907Z" fill="#4F4E4E"/>
<path d="M71.5242 37.4675L71.6142 37.5175L91.0842 49.0475V72.3975H90.9942L71.5242 84.1275L71.4342 84.0675L51.3042 72.2375V49.2375L71.5242 37.4675ZM90.7242 49.2475L71.5242 37.8775L51.6642 49.5075V72.1075L71.5242 83.7775L90.7242 72.2075V49.2475Z" fill="#4F4E4E"/>
<path d="M71.524 37.2575L71.704 37.3675L91.264 48.9375V72.4975L71.524 84.3875L71.344 84.2775L51.124 72.3975V49.1975L71.524 37.2575ZM90.904 49.1075L71.524 37.6375L51.524 49.3675V72.1475L54.784 74.1075L51.504 72.1775V49.4075L71.504 37.6775L71.594 37.7275L90.904 49.1075ZM90.554 49.3075L71.554 38.0475L51.834 49.6075V71.9875L71.524 83.5575L90.524 72.0875L90.554 49.3075ZM90.904 72.2575L90.824 72.3075L71.524 83.9275L90.904 72.2575Z" fill="#4F4E4E"/>
<path d="M71.5641 78.0175H71.6541L76.5541 80.9175V86.8675L71.5541 89.8675L66.4941 86.8675V80.8175L71.5641 78.0175ZM76.1942 81.1675L71.5641 78.4275L66.8542 81.1075V86.7575L71.5641 89.4975L76.1942 86.7075V81.1675Z" fill="#4F4E4E"/>
<path d="M71.5642 77.8075L76.7342 80.8675V87.0175L71.5642 90.1075L66.3242 87.1075V80.8075L71.5642 77.8075ZM76.0142 81.2675L71.5542 78.6375L67.0342 81.2275V86.6675L71.5542 89.3075L76.0142 86.6175V81.2675ZM76.3742 81.0675L73.0142 79.0675L76.3742 81.0675ZM66.6742 86.8675V81.0175L68.6742 79.8575L66.6742 81.0175V86.8675Z" fill="#4F4E4E"/>
<path d="M31.8341 78.0175L36.8141 80.9775V86.9275L35.5841 87.6675L35.3941 87.3675L36.4641 86.7275V81.1775L31.7341 78.3775L31.8041 78.2675L31.7041 78.0875L31.8341 78.0175Z" fill="#4F4E4E"/>
<path d="M31.8339 77.8075L36.9939 80.8675V87.0175L35.5139 87.9075L35.1439 87.2975L36.2739 86.6175V81.2775L31.4839 78.4375L31.5939 78.2575L31.4639 78.0075L31.8339 77.8075ZM36.6339 81.0675L31.9739 78.3075L36.6339 81.0675ZM35.6339 87.4175L35.9839 87.2075L35.6339 87.4175Z" fill="#4F4E4E"/>
<path d="M111.304 78.0175H111.394L116.294 80.9175V86.8675L111.294 89.8675L106.234 86.8675V80.8175L111.304 78.0175ZM115.934 81.1675L111.304 78.4275L106.594 81.1075V86.7575L111.304 89.4975L115.934 86.7075V81.1675Z" fill="#4F4E4E"/>
<path d="M111.304 77.8075L116.474 80.8675V87.0175L111.304 90.1075L106.064 87.1075V80.8075L111.304 77.8075ZM115.754 81.2675L111.294 78.6375L106.784 81.2275V86.6675L111.304 89.3075L115.764 86.6175L115.754 81.2675ZM116.114 81.0675L112.784 79.1075L116.114 81.0675ZM106.414 86.8675V81.0175L108.414 79.8575L106.414 81.0175V86.8675Z" fill="#4F4E4E"/>
<path d="M41.7841 26.1075L41.8741 26.1575L46.7841 29.1075V35.1075L41.7841 38.1075L36.7241 35.1075V29.1075L41.7841 26.1075ZM46.4141 29.2675L41.7841 26.5275L37.0741 29.2275V34.8675L41.7841 37.6075L46.4141 34.8175V29.2675Z" fill="#4F4E4E"/>
<path d="M41.7839 25.9075L46.9539 28.9675V35.1075L41.7839 38.2275L36.5439 35.1775V28.9175L41.7839 25.9075ZM46.2439 29.3775L41.7839 26.7375L37.2539 29.3275V34.7675L41.7839 37.4075L46.2439 34.7175V29.3775ZM46.5939 29.1675L43.4139 27.2875L46.5939 29.1675ZM36.9039 34.9675V29.1075L38.9039 27.9675L36.9039 29.1075V34.9675Z" fill="#4F4E4E"/>
<path d="M71.4642 25.9975L71.5542 26.0575L81.2442 31.7875V43.3275H80.8842V31.9975L71.4542 26.4175L61.8842 31.8975V43.4275H61.5342V31.6875L71.4642 25.9975Z" fill="#4F4E4E"/>
<path d="M71.4541 25.7875L81.4541 31.6875V43.4975H80.744V32.1075L71.494 26.6375L62.1041 32.0175V43.6175H61.394V31.6175L71.4541 25.7875ZM81.0641 31.8875L74.614 28.1075L81.0641 31.8875ZM61.7041 31.7875L65.8241 29.4275L61.7041 31.7875Z" fill="#4F4E4E"/>
<path d="M41.784 20.1075L41.874 20.1575L51.874 26.0575V38.0575H51.794L41.794 44.0575L31.584 38.0575V25.9075L41.784 20.1075ZM51.484 26.2575L41.784 20.4775L31.964 26.1075V37.9075L41.804 43.6475L51.514 37.8075L51.484 26.2575Z" fill="#4F4E4E"/>
<path d="M41.7838 19.8575L52.0138 25.9175V38.1075L41.7838 44.2875L31.4038 38.2275V25.8075L41.7838 19.8575ZM51.3038 26.3175L41.7838 20.6875L32.1238 26.2175V37.8175L41.7838 43.4575L51.3138 37.7175L51.3038 26.3175ZM51.6538 26.1175L44.8638 22.1175L51.6538 26.1175ZM31.7838 38.0175V26.0175L35.9338 23.6375L31.7838 26.0175V38.0175ZM51.6838 37.9175L51.1138 38.2675L51.6838 37.9175Z" fill="#4F4E4E"/>
<path d="M80.8842 18.4475H81.2442V20.1175L71.4642 26.0075L70.1942 25.2775L61.5342 20.2175V20.1175L61.7142 20.1075L61.8042 19.9575L71.4542 25.5875L80.8842 19.9075V18.4475Z" fill="#4F4E4E"/>
<path d="M80.704 18.2675H81.414V20.2075H81.334L71.454 26.2075L70.104 25.4175L61.354 20.3175V19.9375H61.604L61.734 19.7175L71.454 25.3875L80.704 19.8175V18.2675ZM71.454 25.7975L62.134 20.3575L71.454 25.7975Z" fill="#4F4E4E"/>
<path d="M90.9042 24.5975H91.2642V25.9975L71.5842 37.8575H71.4842L71.4442 37.8375L51.5142 26.2075V25.9875H51.7642L51.7842 25.9575L71.5342 37.4775L90.9042 25.7975V24.5975Z" fill="#4F4E4E"/>
<path d="M90.724 24.4175H91.434V26.1075L91.354 26.1575L71.624 38.0375H71.434H71.354L51.354 26.3575V25.8475H51.674L51.734 25.7575L71.544 37.3075L90.744 25.7475L90.724 24.4175ZM71.524 37.6775L70.744 37.2175L71.524 37.6775Z" fill="#4F4E4E"/>
<path d="M92.2939 25.2775L92.4639 25.5775L91.2639 26.2775V27.4675L91.0839 49.0475L111.354 60.6675L111.184 60.9775L90.7339 49.2475V49.1475L90.9039 27.4575V26.0675L92.2939 25.2775Z" fill="#4F4E4E"/>
<path d="M92.3539 25.0275L92.7039 25.6375L91.4339 26.3675V27.4575L91.2639 48.9375L111.594 60.5975L111.244 61.2175L90.5439 49.3475V49.1075L90.7139 27.4175V25.9175L92.3539 25.0275ZM111.074 60.7275L110.444 60.3675L111.074 60.7275Z" fill="#4F4E4E"/>
<path d="M31.9341 60.4175L32.0241 60.4675L51.6641 72.0875V95.6475L50.3641 96.4375L50.1741 96.1275L51.3141 95.4475V72.2975L31.9341 60.8275L31.8741 60.8575L31.7041 60.5475L31.9341 60.4175Z" fill="#4F4E4E"/>
<path d="M31.9341 60.2075L51.8341 71.9875V95.7475L50.2941 96.6775L49.9241 96.0675L51.1241 95.3375V72.3375L31.9241 60.9775L31.7841 61.1075L31.4341 60.4875L31.9341 60.2075ZM51.4841 72.2075L31.9541 60.6475H32.0241L51.4841 72.2075Z" fill="#4F4E4E"/>
<path d="M41.9938 20.2775H41.6338V89.6275H41.9938V20.2775Z" fill="#4F4E4E"/>
<path d="M42.1641 20.0975H41.4541V89.8075H42.1641V20.0975Z" fill="#4F4E4E"/>
<path d="M31.8841 25.8675L61.8041 43.2675L61.6241 43.5775L31.7041 26.1775L31.8841 25.8675Z" fill="#4F4E4E"/>
<path d="M31.7838 25.6175L31.9338 25.7075L62.0138 43.2075L61.6538 43.8175L61.4938 43.7275L31.4238 26.2375L31.7838 25.6175ZM61.5238 43.3275L31.9438 26.1075L61.5538 43.3275H61.5238Z" fill="#4F4E4E"/>
<path d="M90.934 71.8975L91.084 71.9875L111.604 83.5475L111.254 84.1675L111.094 84.0775L90.584 72.5175L90.934 71.8975Z" fill="#4F4E4E"/>
<path d="M71.714 83.9775H71.354V106.917H71.714V83.9775Z" fill="#4F4E4E"/>
<path d="M71.8838 83.7975H71.1738V107.097H71.8838V83.7975Z" fill="#4F4E4E"/>
<path d="M111.274 85.1975C112.064 85.1975 112.704 84.5573 112.704 83.7675C112.704 82.9777 112.064 82.3375 111.274 82.3375C110.484 82.3375 109.844 82.9777 109.844 83.7675C109.844 84.5573 110.484 85.1975 111.274 85.1975Z" fill="#4F4E4E"/>
<path d="M111.264 82.1575C111.582 82.1575 111.894 82.2519 112.158 82.4288C112.423 82.6057 112.629 82.8572 112.751 83.1514C112.873 83.4456 112.905 83.7693 112.843 84.0816C112.781 84.3939 112.627 84.6808 112.402 84.9059C112.177 85.1311 111.89 85.2844 111.578 85.3466C111.266 85.4087 110.942 85.3768 110.648 85.2549C110.354 85.1331 110.102 84.9267 109.925 84.662C109.748 84.3972 109.654 84.0859 109.654 83.7675C109.654 83.3405 109.823 82.931 110.125 82.629C110.427 82.3271 110.837 82.1575 111.264 82.1575V82.1575ZM111.264 85.0175C111.514 85.0195 111.759 84.947 111.968 84.8093C112.176 84.6716 112.339 84.4749 112.436 84.2443C112.533 84.0137 112.558 83.7595 112.51 83.5142C112.462 83.2688 112.342 83.0434 112.165 82.8666C111.988 82.6898 111.762 82.5695 111.517 82.5212C111.272 82.4729 111.018 82.4987 110.787 82.5953C110.556 82.6919 110.36 82.855 110.222 83.0637C110.084 83.2725 110.012 83.5174 110.014 83.7675C110.014 84.099 110.146 84.4169 110.38 84.6514C110.614 84.8858 110.932 85.0175 111.264 85.0175V85.0175Z" fill="#4F4E4E"/>
<path d="M106.424 82.3375C107.214 82.3375 107.854 81.6972 107.854 80.9075C107.854 80.1177 107.214 79.4775 106.424 79.4775C105.634 79.4775 104.994 80.1177 104.994 80.9075C104.994 81.6972 105.634 82.3375 106.424 82.3375Z" fill="#4F4E4E"/>
<path d="M106.414 79.2875C106.733 79.2875 107.044 79.3819 107.309 79.5588C107.573 79.7357 107.78 79.9872 107.902 80.2814C108.023 80.5756 108.055 80.8993 107.993 81.2116C107.931 81.5239 107.778 81.8108 107.553 82.0359C107.327 82.2611 107.041 82.4144 106.728 82.4765C106.416 82.5387 106.092 82.5068 105.798 82.3849C105.504 82.2631 105.252 82.0567 105.076 81.792C104.899 81.5272 104.804 81.2159 104.804 80.8975C104.807 80.4713 104.977 80.0633 105.279 79.7619C105.58 79.4606 105.988 79.2901 106.414 79.2875V79.2875ZM106.414 82.1575C106.664 82.1595 106.908 82.0873 107.117 81.95C107.325 81.8128 107.489 81.6167 107.585 81.3866C107.682 81.1566 107.709 80.9029 107.661 80.6579C107.614 80.4128 107.495 80.1873 107.319 80.0101C107.143 79.8329 106.918 79.7119 106.674 79.6625C106.429 79.613 106.175 79.6374 105.944 79.7325C105.714 79.8275 105.516 79.989 105.377 80.1964C105.238 80.4039 105.164 80.6479 105.164 80.8975C105.164 81.2299 105.296 81.5489 105.53 81.7849C105.764 82.0209 106.082 82.1548 106.414 82.1575V82.1575Z" fill="#4F4E4E"/>
<path d="M76.3738 82.3875C77.1636 82.3875 77.8038 81.7472 77.8038 80.9575C77.8038 80.1677 77.1636 79.5275 76.3738 79.5275C75.5841 79.5275 74.9438 80.1677 74.9438 80.9575C74.9438 81.7472 75.5841 82.3875 76.3738 82.3875Z" fill="#4F4E4E"/>
<path d="M76.3741 79.3475C76.6926 79.3475 77.0039 79.4419 77.2686 79.6188C77.5334 79.7957 77.7397 80.0472 77.8616 80.3414C77.9835 80.6356 78.0153 80.9593 77.9532 81.2716C77.8911 81.5839 77.7378 81.8708 77.5126 82.0959C77.2874 82.3211 77.0005 82.4744 76.6882 82.5366C76.3759 82.5987 76.0522 82.5668 75.758 82.4449C75.4638 82.3231 75.2124 82.1167 75.0355 81.852C74.8586 81.5872 74.7642 81.2759 74.7642 80.9575C74.7642 80.5305 74.9338 80.121 75.2357 79.819C75.5377 79.5171 75.9471 79.3475 76.3741 79.3475V79.3475ZM76.3741 82.2075C76.6242 82.2095 76.8692 82.137 77.0779 81.9993C77.2866 81.8616 77.4497 81.6649 77.5463 81.4343C77.6429 81.2037 77.6687 80.9495 77.6204 80.7042C77.5721 80.4588 77.4519 80.2334 77.2751 80.0566C77.0982 79.8798 76.8728 79.7595 76.6275 79.7112C76.3821 79.6629 76.128 79.6887 75.8973 79.7853C75.6667 79.8819 75.47 80.045 75.3323 80.2537C75.1946 80.4625 75.1222 80.7074 75.1241 80.9575C75.1241 81.289 75.2558 81.6069 75.4903 81.8414C75.7247 82.0758 76.0426 82.2075 76.3741 82.2075V82.2075Z" fill="#4F4E4E"/>
<path d="M71.534 91.1475C72.3238 91.1475 72.964 90.5072 72.964 89.7175C72.964 88.9277 72.3238 88.2875 71.534 88.2875C70.7442 88.2875 70.104 88.9277 70.104 89.7175C70.104 90.5072 70.7442 91.1475 71.534 91.1475Z" fill="#4F4E4E"/>
<path d="M71.524 88.1075C71.8425 88.1075 72.1538 88.2019 72.4185 88.3788C72.6833 88.5557 72.8896 88.8072 73.0115 89.1013C73.1334 89.3955 73.1652 89.7193 73.1031 90.0316C73.041 90.3439 72.8877 90.6308 72.6625 90.8559C72.4373 91.0811 72.1505 91.2344 71.8382 91.2965C71.5259 91.3587 71.2021 91.3268 70.9079 91.2049C70.6137 91.0831 70.3623 90.8767 70.1854 90.6119C70.0085 90.3472 69.9141 90.0359 69.9141 89.7175C69.9141 89.2905 70.0837 88.881 70.3856 88.579C70.6876 88.2771 71.097 88.1075 71.524 88.1075V88.1075ZM71.524 90.9675C71.7713 90.9675 72.0129 90.8942 72.2185 90.7568C72.4241 90.6195 72.5843 90.4242 72.6789 90.1958C72.7735 89.9674 72.7983 89.7161 72.75 89.4736C72.7018 89.2312 72.5827 89.0084 72.4079 88.8336C72.2331 88.6588 72.0104 88.5397 71.7679 88.4915C71.5254 88.4433 71.2741 88.468 71.0457 88.5626C70.8173 88.6572 70.6221 88.8174 70.4847 89.023C70.3474 89.2286 70.274 89.4702 70.274 89.7175C70.2767 90.0482 70.4092 90.3646 70.6431 90.5985C70.8769 90.8323 71.1933 90.9649 71.524 90.9675V90.9675Z" fill="#4F4E4E"/>
<path d="M51.4842 96.9575C52.274 96.9575 52.9142 96.3172 52.9142 95.5275C52.9142 94.7377 52.274 94.0975 51.4842 94.0975C50.6944 94.0975 50.0542 94.7377 50.0542 95.5275C50.0542 96.3172 50.6944 96.9575 51.4842 96.9575Z" fill="#4F4E4E"/>
<path d="M51.484 93.9175C51.8025 93.9175 52.1137 94.0119 52.3785 94.1888C52.6433 94.3657 52.8496 94.6172 52.9715 94.9114C53.0933 95.2056 53.1252 95.5293 53.0631 95.8416C53.001 96.1539 52.8476 96.4408 52.6225 96.6659C52.3973 96.8911 52.1104 97.0444 51.7981 97.1065C51.4858 97.1687 51.1621 97.1368 50.8679 97.0149C50.5737 96.8931 50.3223 96.6867 50.1454 96.4219C49.9684 96.1572 49.874 95.8459 49.874 95.5275C49.874 95.1005 50.0436 94.691 50.3456 94.389C50.6475 94.0871 51.057 93.9175 51.484 93.9175V93.9175ZM51.484 96.7775C51.7341 96.7795 51.979 96.707 52.1878 96.5693C52.3965 96.4316 52.5596 96.2349 52.6562 96.0043C52.7528 95.7737 52.7786 95.5195 52.7303 95.2741C52.682 95.0288 52.5618 94.8034 52.3849 94.6266C52.2081 94.4497 51.9827 94.3295 51.7374 94.2812C51.492 94.233 51.2378 94.2587 51.0072 94.3553C50.7766 94.452 50.5799 94.615 50.4422 94.8237C50.3045 95.0325 50.2321 95.2775 50.234 95.5275C50.234 95.859 50.3657 96.177 50.6002 96.4114C50.8346 96.6458 51.1525 96.7775 51.484 96.7775V96.7775Z" fill="#4F4E4E"/>
<path d="M36.6341 88.0975C37.4239 88.0975 38.0641 87.4573 38.0641 86.6675C38.0641 85.8777 37.4239 85.2375 36.6341 85.2375C35.8443 85.2375 35.2041 85.8777 35.2041 86.6675C35.2041 87.4573 35.8443 88.0975 36.6341 88.0975Z" fill="#4F4E4E"/>
<path d="M36.6339 85.1075C36.9524 85.1075 37.2636 85.2019 37.5284 85.3788C37.7932 85.5557 37.9995 85.8072 38.1214 86.1013C38.2432 86.3955 38.2751 86.7193 38.213 87.0316C38.1509 87.3439 37.9975 87.6308 37.7724 87.8559C37.5472 88.0811 37.2603 88.2344 36.948 88.2965C36.6357 88.3587 36.312 88.3268 36.0178 88.2049C35.7236 88.0831 35.4722 87.8767 35.2953 87.6119C35.1183 87.3472 35.0239 87.0359 35.0239 86.7175C35.0239 86.2905 35.1935 85.881 35.4955 85.579C35.7974 85.2771 36.2069 85.1075 36.6339 85.1075V85.1075ZM36.6339 87.9675C36.884 87.9694 37.1289 87.897 37.3377 87.7593C37.5464 87.6216 37.7095 87.4249 37.8061 87.1943C37.9027 86.9637 37.9285 86.7095 37.8802 86.4641C37.8319 86.2188 37.7117 85.9934 37.5349 85.8166C37.358 85.6397 37.1326 85.5196 36.8873 85.4713C36.6419 85.423 36.3877 85.4487 36.1571 85.5453C35.9265 85.642 35.7298 85.805 35.5921 86.0137C35.4544 86.2225 35.382 86.4674 35.3839 86.7175C35.3969 87.0402 35.5342 87.3455 35.7673 87.5692C36.0003 87.7929 36.3109 87.9177 36.6339 87.9175V87.9675Z" fill="#4F4E4E"/>
<path d="M51.6942 50.8175C52.4839 50.8175 53.1242 50.1773 53.1242 49.3875C53.1242 48.5977 52.4839 47.9575 51.6942 47.9575C50.9044 47.9575 50.2642 48.5977 50.2642 49.3875C50.2642 50.1773 50.9044 50.8175 51.6942 50.8175Z" fill="#4F4E4E"/>
<path d="M51.684 47.7775C52.0028 47.7755 52.3151 47.8682 52.5812 48.0439C52.8473 48.2196 53.0552 48.4704 53.1786 48.7644C53.302 49.0584 53.3352 49.3824 53.2743 49.6954C53.2133 50.0084 53.0607 50.2962 52.836 50.5223C52.6112 50.7485 52.3244 50.9029 52.0118 50.9658C51.6992 51.0287 51.375 50.9974 51.0802 50.8759C50.7854 50.7543 50.5334 50.548 50.356 50.283C50.1787 50.018 50.084 49.7063 50.084 49.3875C50.084 48.9622 50.2522 48.5542 50.552 48.2526C50.8518 47.9509 51.2587 47.7801 51.684 47.7775V47.7775ZM51.684 50.6375C51.9312 50.6375 52.1729 50.5642 52.3784 50.4268C52.584 50.2895 52.7442 50.0943 52.8388 49.8658C52.9334 49.6374 52.9582 49.3861 52.91 49.1436C52.8617 48.9011 52.7427 48.6784 52.5679 48.5036C52.3931 48.3288 52.1703 48.2097 51.9279 48.1615C51.6854 48.1133 51.434 48.138 51.2056 48.2326C50.9772 48.3272 50.782 48.4875 50.6447 48.693C50.5073 48.8986 50.434 49.1403 50.434 49.3875C50.434 49.719 50.5657 50.0369 50.8001 50.2714C51.0345 50.5058 51.3525 50.6375 51.684 50.6375Z" fill="#4F4E4E"/>
<path d="M37.0042 36.4575C37.794 36.4575 38.4342 35.8172 38.4342 35.0275C38.4342 34.2377 37.794 33.5975 37.0042 33.5975C36.2145 33.5975 35.5742 34.2377 35.5742 35.0275C35.5742 35.8172 36.2145 36.4575 37.0042 36.4575Z" fill="#4F4E4E"/>
<path d="M36.9938 33.4075C37.3122 33.4075 37.6235 33.5019 37.8882 33.6788C38.153 33.8557 38.3594 34.1072 38.4812 34.4014C38.6031 34.6956 38.635 35.0193 38.5728 35.3316C38.5107 35.6439 38.3574 35.9308 38.1322 36.1559C37.9071 36.3811 37.6202 36.5344 37.3079 36.5966C36.9956 36.6587 36.6718 36.6268 36.3777 36.5049C36.0835 36.3831 35.832 36.1767 35.6551 35.912C35.4782 35.6472 35.3838 35.3359 35.3838 35.0175C35.3864 34.5913 35.5569 34.1833 35.8582 33.8819C36.1596 33.5806 36.5676 33.4101 36.9938 33.4075V33.4075ZM36.9938 36.2775C37.2434 36.2795 37.488 36.2072 37.6965 36.07C37.905 35.9328 38.0681 35.7367 38.165 35.5066C38.2619 35.2766 38.2883 35.0229 38.2408 34.7779C38.1933 34.5328 38.0741 34.3073 37.8983 34.1301C37.7225 33.9529 37.498 33.8319 37.2533 33.7825C37.0086 33.733 36.7547 33.7574 36.5239 33.8525C36.2931 33.9475 36.0957 34.109 35.9568 34.3164C35.818 34.5239 35.7438 34.7679 35.7438 35.0175C35.7438 35.3499 35.8751 35.6689 36.1093 35.9049C36.3434 36.1409 36.6613 36.2749 36.9938 36.2775V36.2775Z" fill="#4F4E4E"/>
<path d="M41.8441 28.3275C42.6338 28.3275 43.2741 27.6873 43.2741 26.8975C43.2741 26.1077 42.6338 25.4675 41.8441 25.4675C41.0543 25.4675 40.4141 26.1077 40.4141 26.8975C40.4141 27.6873 41.0543 28.3275 41.8441 28.3275Z" fill="#4F4E4E"/>
<path d="M41.8439 25.2875C42.1623 25.2875 42.4736 25.3819 42.7383 25.5588C43.0031 25.7357 43.2095 25.9872 43.3313 26.2814C43.4532 26.5756 43.4851 26.8993 43.4229 27.2116C43.3608 27.5239 43.2075 27.8108 42.9823 28.0359C42.7572 28.2611 42.4703 28.4144 42.158 28.4765C41.8456 28.5387 41.5219 28.5068 41.2278 28.3849C40.9336 28.2631 40.6821 28.0567 40.5052 27.792C40.3283 27.5272 40.2339 27.2159 40.2339 26.8975C40.2339 26.4705 40.4035 26.061 40.7054 25.759C41.0074 25.4571 41.4169 25.2875 41.8439 25.2875ZM41.8439 28.1475C42.0939 28.1495 42.3389 28.077 42.5476 27.9393C42.7564 27.8016 42.9194 27.6049 43.016 27.3743C43.1126 27.1437 43.1384 26.8895 43.0901 26.6442C43.0418 26.3988 42.9216 26.1734 42.7448 25.9966C42.568 25.8198 42.3425 25.6995 42.0972 25.6512C41.8519 25.6029 41.5977 25.6287 41.3671 25.7253C41.1364 25.8219 40.9397 25.985 40.8021 26.1937C40.6644 26.4025 40.5919 26.6474 40.5939 26.8975C40.6043 27.222 40.7405 27.5298 40.9738 27.7556C41.2072 27.9815 41.5192 28.1076 41.8439 28.1075V28.1475Z" fill="#4F4E4E"/>
<path d="M71.3841 27.4575C72.1739 27.4575 72.8141 26.8172 72.8141 26.0275C72.8141 25.2377 72.1739 24.5975 71.3841 24.5975C70.5943 24.5975 69.9541 25.2377 69.9541 26.0275C69.9541 26.8172 70.5943 27.4575 71.3841 27.4575Z" fill="#4F4E4E"/>
<path d="M71.3839 24.4175C71.7024 24.4175 72.0136 24.5119 72.2784 24.6888C72.5432 24.8657 72.7495 25.1172 72.8714 25.4114C72.9932 25.7056 73.0251 26.0293 72.963 26.3416C72.9009 26.6539 72.7475 26.9408 72.5224 27.1659C72.2972 27.3911 72.0103 27.5444 71.698 27.6065C71.3857 27.6687 71.062 27.6368 70.7678 27.5149C70.4736 27.3931 70.2222 27.1867 70.0453 26.9219C69.8683 26.6572 69.7739 26.3459 69.7739 26.0275C69.7739 25.6005 69.9435 25.191 70.2455 24.889C70.5474 24.5871 70.9569 24.4175 71.3839 24.4175V24.4175ZM71.3839 27.2775C71.6312 27.2775 71.8728 27.2042 72.0784 27.0668C72.284 26.9295 72.4442 26.7342 72.5388 26.5058C72.6334 26.2774 72.6582 26.0261 72.6099 25.7836C72.5617 25.5412 72.4426 25.3184 72.2678 25.1436C72.093 24.9688 71.8703 24.8497 71.6278 24.8015C71.3853 24.7533 71.134 24.778 70.9056 24.8726C70.6772 24.9672 70.482 25.1274 70.3446 25.333C70.2073 25.5386 70.1339 25.7803 70.1339 26.0275C70.1339 26.359 70.2656 26.677 70.5001 26.9114C70.7345 27.1458 71.0524 27.2775 71.3839 27.2775V27.2775Z" fill="#4F4E4E"/>
<path d="M46.4842 31.1875C47.274 31.1875 47.9142 30.5473 47.9142 29.7575C47.9142 28.9677 47.274 28.3275 46.4842 28.3275C45.6944 28.3275 45.0542 28.9677 45.0542 29.7575C45.0542 30.5473 45.6944 31.1875 46.4842 31.1875Z" fill="#4F4E4E"/>
<path d="M46.484 28.1075C46.8025 28.1075 47.1137 28.2019 47.3785 28.3788C47.6433 28.5557 47.8496 28.8072 47.9715 29.1013C48.0933 29.3955 48.1252 29.7193 48.0631 30.0316C48.001 30.3439 47.8476 30.6308 47.6225 30.8559C47.3973 31.0811 47.1104 31.2344 46.7981 31.2965C46.4858 31.3587 46.1621 31.3268 45.8679 31.2049C45.5737 31.0831 45.3223 30.8767 45.1454 30.6119C44.9684 30.3472 44.874 30.0359 44.874 29.7175C44.8766 29.2913 45.0471 28.8833 45.3485 28.5819C45.6498 28.2806 46.0579 28.1101 46.484 28.1075V28.1075ZM46.484 30.9675C46.7308 30.9655 46.9715 30.8905 47.1758 30.752C47.38 30.6134 47.5386 30.4175 47.6317 30.1889C47.7248 29.9604 47.7481 29.7094 47.6988 29.4676C47.6494 29.2257 47.5296 29.004 47.3544 28.8301C47.1792 28.6563 46.9564 28.5382 46.7142 28.4908C46.472 28.4434 46.2212 28.4687 45.9934 28.5636C45.7656 28.6585 45.5709 28.8187 45.434 29.0241C45.2971 29.2294 45.224 29.4707 45.224 29.7175C45.2186 29.8858 45.2473 30.0535 45.3083 30.2105C45.3694 30.3675 45.4615 30.5105 45.5792 30.631C45.6968 30.7514 45.8377 30.8469 45.9932 30.9116C46.1487 30.9763 46.3156 31.0089 46.484 31.0075V30.9675Z" fill="#4F4E4E"/>
<path d="M46.4842 36.4575C47.274 36.4575 47.9142 35.8172 47.9142 35.0275C47.9142 34.2377 47.274 33.5975 46.4842 33.5975C45.6944 33.5975 45.0542 34.2377 45.0542 35.0275C45.0542 35.8172 45.6944 36.4575 46.4842 36.4575Z" fill="#4F4E4E"/>
<path d="M46.484 33.4075C46.8025 33.4075 47.1137 33.5019 47.3785 33.6788C47.6433 33.8557 47.8496 34.1072 47.9715 34.4014C48.0933 34.6956 48.1252 35.0193 48.0631 35.3316C48.001 35.6439 47.8476 35.9308 47.6225 36.1559C47.3973 36.3811 47.1104 36.5344 46.7981 36.5966C46.4858 36.6587 46.1621 36.6268 45.8679 36.5049C45.5737 36.3831 45.3223 36.1767 45.1454 35.912C44.9684 35.6472 44.874 35.3359 44.874 35.0175C44.8766 34.5913 45.0471 34.1833 45.3485 33.8819C45.6498 33.5806 46.0579 33.4101 46.484 33.4075V33.4075ZM46.484 36.2775C46.7332 36.2775 46.9768 36.2036 47.1841 36.0651C47.3913 35.9267 47.5527 35.7299 47.6481 35.4997C47.7435 35.2694 47.7684 35.0161 47.7198 34.7717C47.6712 34.5273 47.5512 34.3027 47.375 34.1265C47.1988 33.9503 46.9742 33.8303 46.7298 33.7817C46.4854 33.7331 46.2321 33.758 46.0018 33.8534C45.7716 33.9488 45.5748 34.1103 45.4364 34.3175C45.2979 34.5247 45.224 34.7683 45.224 35.0175C45.224 35.3517 45.3568 35.6722 45.5931 35.9084C45.8294 36.1447 46.1499 36.2775 46.484 36.2775V36.2775Z" fill="#4F4E4E"/>
<path d="M91.0838 27.4575C91.8736 27.4575 92.5138 26.8172 92.5138 26.0275C92.5138 25.2377 91.8736 24.5975 91.0838 24.5975C90.294 24.5975 89.6538 25.2377 89.6538 26.0275C89.6538 26.8172 90.294 27.4575 91.0838 27.4575Z" fill="#4F4E4E"/>
<path d="M91.0841 24.4175C91.4025 24.4175 91.7138 24.5119 91.9786 24.6888C92.2433 24.8657 92.4497 25.1172 92.5716 25.4114C92.6934 25.7056 92.7253 26.0293 92.6632 26.3416C92.6011 26.6539 92.4477 26.9408 92.2226 27.1659C91.9974 27.3911 91.7105 27.5444 91.3982 27.6065C91.0859 27.6687 90.7622 27.6368 90.468 27.5149C90.1738 27.3931 89.9224 27.1867 89.7455 26.9219C89.5685 26.6572 89.4741 26.3459 89.4741 26.0275C89.4741 25.6005 89.6437 25.191 89.9457 24.889C90.2476 24.5871 90.6571 24.4175 91.0841 24.4175V24.4175ZM91.0841 27.2775C91.3309 27.2755 91.5716 27.2005 91.7758 27.062C91.9801 26.9234 92.1387 26.7275 92.2318 26.499C92.3249 26.2704 92.3482 26.0194 92.2989 25.7776C92.2495 25.5357 92.1297 25.314 91.9545 25.1401C91.7793 24.9663 91.5565 24.8482 91.3143 24.8008C91.0721 24.7534 90.8213 24.7787 90.5935 24.8736C90.3656 24.9685 90.171 25.1287 90.0341 25.3341C89.8972 25.5394 89.8241 25.7807 89.8241 26.0275C89.8241 26.1925 89.8568 26.3558 89.9202 26.5081C89.9837 26.6605 90.0766 26.7987 90.1938 26.9149C90.3109 27.0311 90.4499 27.123 90.6027 27.1852C90.7555 27.2474 90.9191 27.2788 91.0841 27.2775V27.2775Z" fill="#4F4E4E"/>
<path d="M80.824 21.2875C81.6138 21.2875 82.254 20.6473 82.254 19.8575C82.254 19.0677 81.6138 18.4275 80.824 18.4275C80.0343 18.4275 79.394 19.0677 79.394 19.8575C79.394 20.6473 80.0343 21.2875 80.824 21.2875Z" fill="#4F4E4E"/>
<path d="M80.7841 18.2475C81.1029 18.2455 81.4152 18.3382 81.6813 18.5139C81.9473 18.6896 82.1553 18.9404 82.2787 19.2344C82.402 19.5284 82.4353 19.8524 82.3744 20.1654C82.3134 20.4784 82.1608 20.7662 81.9361 20.9923C81.7113 21.2185 81.4245 21.3729 81.1119 21.4358C80.7993 21.4987 80.4751 21.4674 80.1803 21.3459C79.8855 21.2243 79.6335 21.018 79.4561 20.753C79.2788 20.488 79.1841 20.1763 79.1841 19.8575C79.1841 19.4322 79.3523 19.0242 79.6521 18.7226C79.9519 18.4209 80.3588 18.2501 80.7841 18.2475ZM80.7841 21.1075C81.0341 21.1095 81.2791 21.037 81.4879 20.8993C81.6966 20.7616 81.8596 20.5649 81.9562 20.3343C82.0528 20.1037 82.0786 19.8495 82.0303 19.6042C81.982 19.3588 81.8618 19.1334 81.685 18.9566C81.5082 18.7798 81.2828 18.6595 81.0374 18.6112C80.7921 18.5629 80.5379 18.5888 80.3073 18.6854C80.0766 18.782 79.88 18.945 79.7423 19.1537C79.6046 19.3624 79.5321 19.6074 79.5341 19.8575C79.5341 20.189 79.6658 20.5069 79.9002 20.7414C80.1346 20.9758 80.4526 21.1075 80.7841 21.1075Z" fill="#4F4E4E"/>
<path d="M111.274 39.1075C112.064 39.1075 112.704 38.4673 112.704 37.6775C112.704 36.8877 112.064 36.2475 111.274 36.2475C110.484 36.2475 109.844 36.8877 109.844 37.6775C109.844 38.4673 110.484 39.1075 111.274 39.1075Z" fill="#4F4E4E"/>
<path d="M111.264 36.1075C111.582 36.1075 111.894 36.2019 112.158 36.3788C112.423 36.5557 112.629 36.8072 112.751 37.1013C112.873 37.3955 112.905 37.7193 112.843 38.0316C112.781 38.3439 112.627 38.6308 112.402 38.8559C112.177 39.0811 111.89 39.2344 111.578 39.2965C111.266 39.3587 110.942 39.3268 110.648 39.2049C110.354 39.0831 110.102 38.8767 109.925 38.6119C109.748 38.3472 109.654 38.0359 109.654 37.7175C109.654 37.2905 109.823 36.881 110.125 36.579C110.427 36.2771 110.837 36.1075 111.264 36.1075V36.1075ZM111.264 38.9675C111.514 38.9694 111.759 38.897 111.968 38.7593C112.176 38.6216 112.339 38.4249 112.436 38.1943C112.533 37.9637 112.558 37.7095 112.51 37.4641C112.462 37.2188 112.342 36.9934 112.165 36.8166C111.988 36.6397 111.762 36.5196 111.517 36.4713C111.272 36.423 111.018 36.4487 110.787 36.5453C110.556 36.642 110.36 36.805 110.222 37.0137C110.084 37.2225 110.012 37.4674 110.014 37.7175C110.024 38.042 110.16 38.3498 110.394 38.5756C110.627 38.8015 110.939 38.9277 111.264 38.9275V38.9675Z" fill="#4F4E4E"/>
<defs>
<linearGradient id="paint0_linear_706_594" x1="21.9943" y1="60.6975" x2="120.494" y2="60.6975" gradientUnits="userSpaceOnUse">
<stop stop-color="#F8F3EC"/>
<stop offset="0.48" stop-color="#C0B8B9"/>
<stop offset="1"/>
</linearGradient>
<linearGradient id="paint1_linear_706_594" x1="21.9943" y1="60.6975" x2="120.494" y2="60.6975" gradientUnits="userSpaceOnUse">
<stop stop-color="#FFFDFA"/>
<stop offset="0.48" stop-color="#C5C5C5"/>
<stop offset="1" stop-color="#686868"/>
</linearGradient>
</defs>
</svg>
