<?xml version="1.0" standalone="no"?>
<!DOCTYPE svg PUBLIC "-//W3C//DTD SVG 20010904//EN"
 "http://www.w3.org/TR/2001/REC-SVG-20010904/DTD/svg10.dtd">
<svg version="1.0" xmlns="http://www.w3.org/2000/svg"
 width="589.000000pt" height="787.000000pt" viewBox="0 0 589.000000 787.000000"
 preserveAspectRatio="xMidYMid meet">

<g transform="translate(0.000000,787.000000) scale(0.100000,-0.100000)"
fill="#000000" stroke="none">
<path d="M2615 7864 c-579 -45 -1100 -174 -1545 -383 -72 -33 -75 -39 -9 -15
100 35 333 96 493 129 515 105 1038 120 1538 45 262 -40 482 -111 743 -240
197 -97 361 -201 530 -337 138 -110 359 -329 351 -349 -4 -11 -625 -890 -753
-1066 l-35 -48 561 0 561 0 415 555 c228 306 415 560 415 564 0 20 -253 214
-435 334 -646 424 -1402 704 -2140 792 -124 15 -581 27 -690 19z"/>
<path d="M2545 6250 c-408 -66 -708 -202 -1017 -459 -512 -428 -775 -1093
-719 -1818 29 -376 103 -658 250 -958 258 -526 720 -978 1289 -1263 740 -370
1517 -428 2294 -171 406 134 786 362 1077 647 l89 87 -366 477 c-202 262 -369
477 -372 477 -3 1 -48 -36 -100 -80 -305 -258 -635 -424 -972 -490 -136 -27
-379 -32 -498 -10 -176 31 -370 112 -495 206 -97 73 -238 208 -326 313 -353
422 -527 916 -505 1437 18 440 151 833 393 1160 82 110 271 300 377 380 l80
59 -30 9 c-62 19 -323 17 -449 -3z"/>
<path d="M4467 3480 l-258 -5 -33 -78 c-96 -220 -279 -400 -525 -515 l-83 -39
59 -7 c66 -7 225 7 320 29 294 68 598 255 861 528 39 41 72 80 72 86 0 7 -26
10 -77 9 -43 -1 -194 -5 -336 -8z"/>
<path d="M5813 2047 c-111 -176 -341 -435 -542 -612 -403 -353 -863 -630
-1339 -804 -552 -202 -1176 -271 -1872 -205 -786 74 -1484 354 -1983 797 -80
71 -76 56 17 -59 146 -182 420 -429 633 -572 748 -500 1626 -661 2603 -476
978 185 1743 670 2245 1424 122 182 305 546 293 581 -2 4 -26 -29 -55 -74z"/>
</g>
</svg>
