<svg width="63" height="63" viewBox="0 0 63 63" fill="none" xmlns="http://www.w3.org/2000/svg">
<g clip-path="url(#clip0_270_368)">
<path d="M49.8497 27.155C49.0719 22.5966 46.7205 18.9316 43.0201 16.1779C39.3775 13.4664 35.2548 12.3996 30.741 12.8641C28.4395 13.0818 26.2099 13.7831 24.1981 14.9221C19.3287 17.7003 16.344 21.8387 15.3438 27.3683C14.6011 31.7258 15.54 36.2027 17.9708 39.8946C18.0502 40.0037 18.102 40.1305 18.1217 40.264C18.1415 40.3975 18.1286 40.5339 18.0841 40.6613C17.6796 42.0704 17.2996 43.4884 16.9129 44.9041C16.7529 45.4842 16.5973 46.0665 16.4262 46.6955L16.6484 46.6488C18.6486 46.1243 20.6489 45.6065 22.6335 45.0664C22.7698 45.0241 22.9138 45.0129 23.055 45.0337C23.1961 45.0544 23.3308 45.1066 23.4491 45.1864C27.134 47.4089 31.11 48.2313 35.3682 47.569C39.0861 47.032 42.5159 45.2615 45.107 42.5416C49.2474 38.2254 50.8565 33.058 49.8497 27.155ZM42.9201 37.852C42.6667 38.501 42.1333 38.9233 41.5866 39.3234C40.142 40.388 38.5285 40.6302 36.8217 40.2124C34.1169 39.5456 31.55 38.5655 29.3275 36.8252C27.5512 35.4209 25.9855 33.769 24.6782 31.9201C23.9403 30.8911 23.1869 29.8709 22.678 28.7019C22.1727 27.6563 21.912 26.5094 21.9157 25.3481C21.9292 23.9092 22.4847 22.5283 23.4714 21.4808C23.6839 21.2377 23.9182 21.0145 24.1714 20.8141C24.6159 20.4829 25.1515 20.4851 25.6649 20.5185C25.7523 20.5229 25.8398 20.5229 25.9272 20.5185C26.7006 20.4229 27.1206 20.8452 27.3918 21.5031C27.9355 22.8262 28.4852 24.1471 29.0409 25.4658C29.0968 25.6066 29.1214 25.7578 29.113 25.9091C29.1045 26.0603 29.0632 26.2079 28.992 26.3415C28.6964 27.0083 28.1985 27.5084 27.7274 28.0329C27.2562 28.5574 27.2362 28.7219 27.5963 29.3175C28.9697 31.5912 30.7699 33.427 33.1279 34.676C33.6858 34.9739 34.2725 35.2206 34.8526 35.4739C35.0023 35.5622 35.1801 35.5902 35.3497 35.5522C35.5193 35.5142 35.6682 35.4132 35.766 35.2695C36.3216 34.6027 36.8772 33.9359 37.3995 33.2692C37.7618 32.8024 37.9885 32.678 38.5307 32.9136C39.5242 33.3425 40.4976 33.8181 41.4755 34.2826C41.9489 34.5049 42.4112 34.7494 42.8823 34.9783C43.0223 35.0369 43.1405 35.1378 43.2202 35.267C43.2999 35.3961 43.3372 35.547 43.3268 35.6984C43.3299 36.4357 43.1918 37.1667 42.9201 37.852V37.852Z" fill="white"/>
<path d="M31.5013 0C25.2715 1.55073e-08 19.1816 1.84738 14.0017 5.30855C8.8218 8.76972 4.78451 13.6892 2.40037 19.445C0.0162254 25.2007 -0.607688 31.5342 0.607524 37.6445C1.82274 43.7549 4.82249 49.3676 9.22747 53.7731C13.6324 58.1785 19.2448 61.1788 25.3548 62.3945C31.4649 63.6102 37.7982 62.9867 43.5539 60.6028C49.3096 58.219 54.2292 54.1819 57.6906 49.0021C61.152 43.8222 62.9998 37.7322 63.0002 31.5022C63.0005 27.3654 62.186 23.269 60.6031 19.447C59.0203 15.625 56.7002 12.1522 53.7752 9.22692C50.8502 6.30164 47.3777 3.98117 43.556 2.398C39.7342 0.814841 35.638 -1.02971e-08 31.5013 0V0ZM51.6501 39.3744C49.3366 44.1618 45.6939 47.5978 40.8268 49.707C38.8159 50.5709 36.6784 51.1031 34.4972 51.2828C30.4244 51.6572 26.3309 50.8354 22.7182 48.918C22.579 48.854 22.422 48.8399 22.2737 48.878C18.7829 49.7848 15.2937 50.6968 11.8059 51.6139C11.6681 51.6495 11.5281 51.6806 11.337 51.7273C11.4903 51.1583 11.6303 50.6383 11.7815 50.1204C12.6097 47.0933 13.4365 44.0662 14.2617 41.0391C14.2945 40.8839 14.2725 40.7221 14.1995 40.5813C12.7862 38.0683 11.9134 35.2878 11.637 32.4179C11.0881 26.4771 12.7171 21.1897 16.5531 16.6379C18.3867 14.4759 20.6374 12.7058 23.1706 11.4333C25.7037 10.1608 28.4674 9.41198 31.2965 9.2317C34.1256 9.05141 36.962 9.44331 39.6362 10.384C42.3104 11.3246 44.7675 12.7948 46.8607 14.7065C50.1671 17.6697 52.4218 21.6264 53.2859 25.9814C54.2304 30.6132 53.7148 35.1027 51.6501 39.3744Z" fill="white"/>
</g>
<defs>
<clipPath id="clip0_270_368">
<rect width="63" height="63" fill="white"/>
</clipPath>
</defs>
</svg>
