<svg width="50" height="50" viewBox="0 0 50 50" fill="none" xmlns="http://www.w3.org/2000/svg">
<g clip-path="url(#clip0_270_417)">
<path d="M26.6333 -5.99977e-05C28.0433 0.236458 29.469 0.408472 30.8618 0.716663C40.3297 2.84246 47.9956 10.9543 49.6238 20.5297C51.8508 33.63 44.004 45.8673 31.2452 49.1986C17.1151 52.8812 2.69219 43.5193 0.338865 29.1304C-1.84647 15.7707 6.75416 3.25673 20.0098 0.521716C21.1053 0.296665 22.2195 0.170517 23.3251 -0.00292969L26.6333 -5.99977e-05ZM16.571 25.0136C16.571 28.86 16.571 32.7064 16.571 36.5528C16.571 38.0694 17.0879 38.5954 18.5811 38.5954C22.8886 38.5954 27.1961 38.5954 31.5036 38.5954C32.8863 38.5954 33.4563 38.0307 33.4563 36.6288C33.4563 28.8882 33.4563 21.1476 33.4563 13.407C33.4563 11.9348 32.882 11.3772 31.4031 11.3772H18.6242C17.1482 11.3772 16.5738 11.9506 16.5724 13.4027C16.5686 17.2739 16.5681 21.1442 16.571 25.0136Z" fill="white"/>
<path d="M17.7828 14.3916H32.2043V36.6673H17.7828V14.3916Z" fill="white"/>
<path d="M24.9907 13.3495C23.9382 13.3495 22.8843 13.3667 21.8318 13.3352C21.6193 13.328 21.4111 13.1331 21.2029 13.0256C21.4083 12.8822 21.6136 12.6357 21.8218 12.6328C23.9507 12.6022 26.0805 12.6022 28.2112 12.6328C28.4094 12.6328 28.6047 12.8607 28.8014 12.984C28.6075 13.1058 28.4166 13.3295 28.227 13.3352C27.1459 13.3682 26.0675 13.3495 24.9907 13.3495Z" fill="white"/>
</g>
<defs>
<clipPath id="clip0_270_417">
<rect width="50" height="50" fill="white"/>
</clipPath>
</defs>
</svg>
