<svg width="50" height="50" viewBox="0 0 50 50" fill="none" xmlns="http://www.w3.org/2000/svg">
<g clip-path="url(#clip0_270_409)">
<path d="M21.2909 18.2732C21.2923 17.5442 21.5098 16.832 21.9158 16.2266C22.3218 15.6211 22.8981 15.1496 23.5719 14.8716C24.2458 14.5935 24.9869 14.5214 25.7018 14.6644C26.4166 14.8074 27.073 15.159 27.588 15.6749C28.1031 16.1907 28.4537 16.8476 28.5955 17.5627C28.7374 18.2777 28.6642 19.0187 28.3851 19.6922C28.106 20.3656 27.6335 20.9412 27.0275 21.3462C26.4214 21.7513 25.7089 21.9676 24.9799 21.9679C24.4947 21.969 24.014 21.8742 23.5655 21.6889C23.1171 21.5035 22.7097 21.2313 22.3669 20.8879C22.024 20.5445 21.7524 20.1367 21.5678 19.688C21.3831 19.2392 21.289 18.7584 21.2909 18.2732V18.2732Z" fill="white"/>
<path d="M49.6158 20.8709C48.0157 11.0842 40.5474 3.01371 30.9457 0.742681C29.5378 0.408622 28.0882 0.243735 26.6588 0H23.3612C22.2788 0.162012 21.1877 0.286757 20.1153 0.494648C13.6885 1.76704 8.01934 5.51459 4.3306 10.929C0.641862 16.3434 -0.770866 22.9908 0.397145 29.4374C2.84883 43.1683 16.151 52.2438 29.8274 49.5097C43.1195 46.8644 51.8094 34.2849 49.6158 20.8709ZM16.3933 16.1395C17.2851 12.7502 20.207 10.1279 23.6982 9.6648C24.1197 9.60888 24.5441 9.57734 24.7792 9.55296C29.1134 9.57877 32.6762 12.3774 33.6397 16.4349C33.9997 17.9134 33.9088 19.4659 33.3787 20.8924C32.7957 22.4566 32.0761 23.9664 31.2281 25.4043C29.8633 27.7386 28.3743 29.998 26.7678 32.173C25.8516 33.4261 24.1398 33.4633 23.2308 32.2303C21.2006 29.4604 19.2837 26.6173 17.7238 23.5491C17.0414 22.2085 16.4334 20.8379 16.1696 19.3411C15.9861 18.2543 16.1166 17.1905 16.3933 16.141V16.1395ZM40.1804 33.8404C39.9808 34.66 39.5296 35.3965 38.89 35.9465C38.1184 36.5963 37.2469 37.1172 36.3093 37.4892C34.3522 38.2979 32.2948 38.7337 30.2087 39.0119C28.1876 39.2833 26.1483 39.3955 24.1096 39.3474C21.2952 39.2786 18.508 38.9832 15.794 38.2233C14.1595 37.766 12.5767 37.1781 11.2419 36.0828C10.33 35.3344 9.71211 34.4225 9.79097 33.1809C9.85978 32.107 10.4476 31.317 11.2433 30.6604C12.5337 29.5965 14.0706 29.0188 15.6549 28.5657C16.3718 28.3621 17.0887 28.2144 17.8156 28.0553C17.8634 28.0499 17.9119 28.056 17.957 28.0729C18.0021 28.0898 18.0426 28.1172 18.0751 28.1528C18.564 28.884 19.04 29.6224 19.5475 30.4037C19.1174 30.484 18.7303 30.5471 18.3389 30.6303C16.6872 30.9572 15.0671 31.383 13.5875 32.2174C13.2774 32.391 12.9887 32.6003 12.7272 32.8411C12.3229 33.2124 12.2971 33.558 12.7272 33.892C13.2185 34.2843 13.7518 34.6209 14.3173 34.8956C15.8643 35.6268 17.5231 35.9939 19.2034 36.272C21.6287 36.6515 24.086 36.787 26.5384 36.6763C29.1636 36.5846 31.7586 36.2649 34.2691 35.4419C35.2182 35.1308 36.1473 34.7666 36.9559 34.1587C37.7387 33.5709 37.733 33.1379 36.9444 32.5716C35.7487 31.7113 34.3766 31.2812 32.9744 30.9271C32.1988 30.7349 31.4102 30.6016 30.6274 30.441C30.5632 30.4241 30.5 30.4035 30.4382 30.3794C30.94 29.608 31.4274 28.8539 31.9235 28.1055C31.9481 28.0791 31.9786 28.0589 32.0125 28.0465C32.0463 28.034 32.0826 28.0297 32.1185 28.0338C34.087 28.441 36.0254 28.9413 37.776 29.9794C38.566 30.4482 39.2914 31.0031 39.7474 31.8231C39.9208 32.1858 40.0693 32.56 40.1918 32.9429L40.1804 33.8404Z" fill="white"/>
</g>
<defs>
<clipPath id="clip0_270_409">
<rect width="49.9541" height="50" fill="white"/>
</clipPath>
</defs>
</svg>
