<svg width="142" height="142" viewBox="0 0 142 142" fill="none" xmlns="http://www.w3.org/2000/svg">
<g filter="url(#filter0_d_266_357)">
<circle cx="71" cy="67" r="67" fill="url(#paint0_linear_266_357)"/>
<g clip-path="url(#clip0_266_357)">
<path d="M39.5818 77.2718C39.7311 77.2446 39.8778 77.2052 40.0207 77.1542C40.2459 77.0549 40.4659 76.9441 40.6797 76.822C39.7382 74.6666 38.4788 72.6649 36.9436 70.8841C35.8868 69.7089 34.949 68.4317 34.1438 67.0711C32.7756 64.5103 33.1115 61.8842 34.429 59.358C34.8588 58.5216 35.5313 58.5913 36.2544 58.9726C38.1114 59.9694 39.2586 61.6701 40.1676 63.43C42.8417 68.6174 46.3891 73.3043 50.6535 77.2844C54.2962 80.6971 55.1502 84.692 54.701 89.3001C54.4454 91.8575 54.4454 91.8575 52.0096 92.5102L37.6583 96.3556C34.5087 88.6389 30.1089 81.7333 25.7034 74.8245C23.2559 70.9831 22.2595 66.3928 22.8943 61.8831C23.6671 55.7788 24.5622 49.6747 26.5138 43.7919C26.7971 42.9303 27.1672 42.0998 27.6184 41.3134C28.315 40.1038 29.4823 39.7203 30.8108 39.798C32.1393 39.8757 32.875 40.6026 33.3032 41.7794C34.5238 45.1058 34.4302 48.5485 34.0928 51.9764C33.8652 54.8041 33.276 57.5903 32.3394 60.2668C30.9456 64.0532 31.8741 67.5709 34.557 70.6845C36.3294 72.7174 37.8467 74.9743 39.5818 77.2718Z" fill="white"/>
<path d="M102.369 76.891L103.792 77.409C104.122 76.7246 104.493 76.0606 104.903 75.4205C106.168 73.6852 107.456 71.9657 108.792 70.2824C111.196 67.2592 112.176 63.9013 110.773 60.2208C108.935 55.4056 108.687 50.4507 108.999 45.4055C109.14 44.2059 109.403 43.0238 109.784 41.8777C109.907 41.2958 110.225 40.7733 110.685 40.3973C111.145 40.0214 111.72 39.8148 112.313 39.8119C113.687 39.7415 114.949 40.1221 115.535 41.4481C116.345 43.108 116.982 44.8474 117.436 46.6387C118.447 51.3642 119.411 56.1243 120.103 60.8965C120.909 66.5242 119.615 71.7213 116.392 76.5003C112.675 81.9192 109.412 87.6372 106.637 93.5957C106.231 94.4814 105.874 95.39 105.46 96.3727L101.072 95.1968C97.2401 94.1701 93.4087 93.1435 89.5832 92.0949C89.387 92.0418 89.2052 91.9454 89.0511 91.8127C88.897 91.6801 88.7745 91.5146 88.6926 91.3283C88.2384 88.0199 87.9081 84.6882 89.3322 81.5154C89.7473 80.5456 90.3295 79.6565 91.0521 78.8886C95.6794 74.1888 99.9582 69.2448 103.059 63.344C103.858 61.8186 105.17 60.5016 106.454 59.3088C107.624 58.2081 108.41 58.5412 109.026 59.9979C110.489 63.4542 109.879 66.6281 107.503 69.4043C105.51 71.6612 103.589 73.9181 102.369 76.891Z" fill="white"/>
<path d="M45.8626 46.4138H70.9979V77.8321C64.4479 75.4368 58.6366 71.3665 54.1411 66.0252C49.3593 60.5438 46.4578 53.6701 45.8626 46.4138Z" fill="white"/>
<path d="M71.0024 44.6881H45.7945V26.8343C55.954 26.8343 64.5505 23.4466 71.0024 14.9955V44.6881Z" fill="white"/>
<path d="M72.6882 77.2675V46.4365H96.633C95.9015 60.165 85.124 72.5274 72.6882 77.2675Z" fill="white"/>
<path d="M72.6927 44.679V15.1913C75.4997 18.933 79.1801 21.9272 83.4111 23.911C87.5912 25.8383 92.1407 26.8281 96.742 26.8115V44.679H72.6927Z" fill="white"/>
<path d="M35.4457 98.6315L57.3195 92.7704L60.4189 104.338L38.5452 110.199L35.4457 98.6315ZM44.7129 104.813L43.261 99.3941L37.854 100.843L39.3059 106.261L44.7129 104.813Z" fill="white"/>
<path d="M104.534 110.205L82.6558 104.343L85.7411 92.8284L107.619 98.6906L104.534 110.205ZM103.769 106.267L105.227 100.826L99.8591 99.3878L98.4013 104.828L103.769 106.267Z" fill="white"/>
<path d="M39.7931 101.935L42.128 101.31L42.7608 103.672L40.4259 104.297L39.7931 101.935Z" fill="white"/>
<path d="M103.307 101.985L102.683 104.316L100.335 103.687L100.957 101.365L103.307 101.985Z" fill="white"/>
</g>
</g>
<defs>
<filter id="filter0_d_266_357" x="0" y="0" width="142" height="142" filterUnits="userSpaceOnUse" color-interpolation-filters="sRGB">
<feFlood flood-opacity="0" result="BackgroundImageFix"/>
<feColorMatrix in="SourceAlpha" type="matrix" values="0 0 0 0 0 0 0 0 0 0 0 0 0 0 0 0 0 0 127 0" result="hardAlpha"/>
<feOffset dy="4"/>
<feGaussianBlur stdDeviation="2"/>
<feComposite in2="hardAlpha" operator="out"/>
<feColorMatrix type="matrix" values="0 0 0 0 0 0 0 0 0 0 0 0 0 0 0 0 0 0 0.25 0"/>
<feBlend mode="normal" in2="BackgroundImageFix" result="effect1_dropShadow_266_357"/>
<feBlend mode="normal" in="SourceGraphic" in2="effect1_dropShadow_266_357" result="shape"/>
</filter>
<linearGradient id="paint0_linear_266_357" x1="71" y1="0" x2="71" y2="134" gradientUnits="userSpaceOnUse">
<stop stop-color="#0A81C4"/>
<stop offset="1" stop-color="#18A0FB"/>
</linearGradient>
<clipPath id="clip0_266_357">
<rect width="101" height="94" fill="white" transform="translate(21 15)"/>
</clipPath>
</defs>
</svg>
