<svg width="72" height="53" viewBox="0 0 72 53" fill="none" xmlns="http://www.w3.org/2000/svg">
<path d="M48.5902 6.51862C59.5629 6.69608 68.8663 14.3721 70.9819 25.2135C72.0701 30.8019 71.075 36.0774 68.2692 41.0044C68.0865 41.2719 67.9808 41.5848 67.9638 41.9088C67.9469 42.2327 68.0192 42.5551 68.1729 42.8404C69.396 45.4539 70.5517 48.1029 71.7652 50.7229C72.0862 51.407 72.1151 52.0136 71.5886 52.5718C71.0621 53.13 70.4361 53.0687 69.7619 52.7589C67.0268 51.4973 64.2756 50.2744 61.5404 49.0096C61.3591 48.9073 61.1529 48.8582 60.9451 48.8679C60.7374 48.8776 60.5366 48.9457 60.3655 49.0645C54.6865 52.4814 48.6062 53.3494 42.282 51.4715C35.1809 49.3613 30.1793 44.757 27.4538 37.8004C25.2066 32.07 25.2868 26.2815 27.6945 20.6608C30.6576 13.743 35.855 9.24831 43.1616 7.38334C44.9305 6.93162 46.7764 6.79933 48.5902 6.51862ZM45.091 29.4887C45.0872 29.9472 45.1733 30.4019 45.3443 30.827C45.5154 31.252 45.7681 31.639 46.0879 31.9659C46.4078 32.2927 46.7886 32.5531 47.2086 32.7321C47.6285 32.911 48.0795 33.0051 48.5356 33.0089C48.9918 33.0128 49.4442 32.9262 49.8671 32.7543C50.29 32.5824 50.675 32.3284 51.0002 32.0069C51.3255 31.6854 51.5845 31.3027 51.7626 30.8806C51.9406 30.4585 52.0342 30.0053 52.038 29.5468C52.0457 28.6209 51.6871 27.7298 51.0411 27.0697C50.3951 26.4095 49.5146 26.0343 48.5934 26.0266C47.6722 26.0189 46.7856 26.3793 46.1288 27.0286C45.472 27.6779 45.0987 28.5628 45.091 29.4887ZM37.2708 26.0395C36.3555 26.0578 35.4818 26.4273 34.8288 27.0722C34.1758 27.7171 33.793 28.5886 33.7587 29.5081C33.7823 30.4419 34.1619 31.331 34.8191 31.9915C35.4763 32.6521 36.3609 33.0336 37.29 33.0573C38.2155 33.0552 39.1023 32.6836 39.7552 32.0244C40.4081 31.3651 40.7737 30.4722 40.7716 29.542C40.7695 28.6118 40.3998 27.7205 39.7438 27.0643C39.0879 26.4081 38.1995 26.0406 37.274 26.0427L37.2708 26.0395ZM56.4072 29.5274C56.4126 30.4467 56.7727 31.328 57.4116 31.9858C58.0505 32.6436 58.9184 33.0266 59.8326 33.0541C60.2908 33.0558 60.7449 32.9668 61.1689 32.7921C61.593 32.6174 61.9786 32.3605 62.3038 32.036C62.6291 31.7115 62.8875 31.3258 63.0644 30.9009C63.2414 30.476 63.3333 30.0203 63.335 29.5597C63.3367 29.0991 63.2481 28.6427 63.0743 28.2165C62.9005 27.7904 62.6448 27.4028 62.322 27.0759C61.9991 26.749 61.6154 26.4892 61.1927 26.3114C60.77 26.1336 60.3165 26.0412 59.8583 26.0395C58.9425 26.0488 58.0672 26.4199 57.4215 27.0725C56.7757 27.7252 56.4114 28.607 56.4072 29.5274Z" fill="black"/>
<path d="M5.18089 38.0553L8.75713 36.442C9.29004 36.2 9.81973 35.9484 10.3623 35.7064C10.7603 35.5111 11.2021 35.4236 11.644 35.4524C12.086 35.4813 12.5128 35.6255 12.8823 35.8709C15.7234 37.6585 18.8534 38.3909 22.1697 38.3941C22.3969 38.3612 22.6282 38.4147 22.8182 38.5442C23.0082 38.6738 23.1433 38.8699 23.1969 39.0943C23.6367 40.23 24.16 41.3303 24.6865 42.479C22.6961 42.8855 20.7603 42.7791 18.831 42.5274C16.3643 42.1993 13.9769 41.4254 11.7844 40.243C11.6244 40.1727 11.4521 40.1348 11.2775 40.1315C11.1029 40.1282 10.9293 40.1595 10.7668 40.2236C8.8117 41.0786 6.88875 42.0014 4.94011 42.8662C2.79565 43.8342 0.606248 42.8855 0.0669224 40.6818C-0.0784442 39.8758 0.0141798 39.0446 0.333371 38.2909C1.10384 36.3549 2.02197 34.477 2.90159 32.5895C3.00809 32.3947 3.06393 32.1761 3.06393 31.9538C3.06393 31.7316 3.00809 31.513 2.90159 31.3182C-1.00852 23.0581 -0.353628 15.2046 5.23867 7.94477C8.63514 3.54047 13.2451 1.04954 18.7218 0.246118C25.1167 -0.689594 30.7475 1.06245 35.6945 5.16667C35.7974 5.23889 35.9046 5.30463 36.0156 5.3635C34.786 6.18628 33.6624 6.9768 32.4843 7.68342C32.3013 7.79312 31.8422 7.62211 31.6111 7.45432C29.298 5.81029 26.6131 4.7728 23.8 4.43597C20.9869 4.09914 18.1346 4.47366 15.502 5.52552C12.8694 6.57738 10.5397 8.27329 8.72448 10.4594C6.90923 12.6455 5.66581 15.2525 5.10705 18.044C4.23345 22.2092 4.98259 26.5526 7.20015 30.1792C7.49427 30.6092 7.66768 31.1109 7.70214 31.6316C7.7366 32.1523 7.63083 32.6726 7.39597 33.138C6.66403 34.6997 5.97703 36.2872 5.18089 38.0553Z" fill="black"/>
</svg>
