<svg width="55" height="55" viewBox="0 0 55 55" fill="none" xmlns="http://www.w3.org/2000/svg">
<g clip-path="url(#clip0_272_585)">
<path d="M41.4539 12.114C44.8676 14.6037 48.246 17.0679 51.6269 19.5295C52.5623 20.2131 53.4825 20.9121 54.438 21.5702C54.6218 21.6802 54.7714 21.84 54.8698 22.0317C54.9683 22.2233 55.0118 22.439 54.9952 22.6543C54.9767 32.0298 54.9725 41.4043 54.9826 50.778V54.9896H50.4016V54.2243C50.4016 49.3674 50.4016 44.5105 50.4016 39.6536C50.4016 36.9419 48.9897 35.0619 46.4811 34.3579C43.5792 33.5492 40.4807 35.6971 40.1781 38.7276C40.1227 39.2964 40.0899 39.8678 40.0874 40.4392C40.0874 45.0207 40.0874 49.6021 40.0874 54.1835V54.9819H26.3796C26.367 54.8059 26.3418 54.6222 26.3418 54.4411C26.3418 44.2375 26.346 34.0339 26.3544 23.8303C26.3579 23.6822 26.3912 23.5363 26.4523 23.4017C26.5135 23.267 26.6011 23.1464 26.7099 23.0472C31.6035 19.4045 36.5073 15.7797 41.4539 12.114ZM44.6406 22.588C44.6456 21.984 44.5327 21.3849 44.3085 20.825C44.0842 20.2652 43.753 19.7556 43.3338 19.3255C42.9146 18.8954 42.4156 18.5532 41.8654 18.3186C41.3152 18.084 40.7247 17.9615 40.1277 17.9581C39.2194 17.945 38.3277 18.2055 37.5661 18.7066C36.8046 19.2076 36.2076 19.9266 35.851 20.772C35.4945 21.6173 35.3945 22.5509 35.5639 23.4539C35.7333 24.3569 36.1644 25.1885 36.8023 25.8429C37.4402 26.4973 38.2561 26.945 39.1461 27.1289C40.0362 27.3128 40.9601 27.2246 41.8005 26.8756C42.6409 26.5267 43.3598 25.9326 43.8655 25.1691C44.3712 24.4056 44.641 23.5071 44.6406 22.588Z" fill="black"/>
<path d="M24.0372 54.9997H20.6185V33.0186H5.74339V54.9767H-0.00244141V54.2115C-0.00244141 43.7545 0.00255422 33.2958 0.012639 22.8354C0.0160886 22.4639 0.143138 22.1045 0.373215 21.815C6.59218 14.647 12.8313 7.4883 19.0906 0.338974C19.1839 0.231836 19.2848 0.129802 19.4184 -0.010498L33.5371 15.0577L28.9082 18.5065C27.4559 19.5881 26.0163 20.685 24.5465 21.7385C24.3747 21.8508 24.2369 22.0087 24.148 22.195C24.059 22.3812 24.0224 22.5887 24.0422 22.7946C24.0523 33.2294 24.0523 43.6652 24.0422 54.1018L24.0372 54.9997ZM19.499 9.82323C18.282 9.81477 17.1116 10.2958 16.2452 11.1605C15.3788 12.0252 14.8873 13.2027 14.8789 14.434C14.8706 15.6653 15.346 16.8495 16.2006 17.7262C17.0552 18.6028 18.219 19.1001 19.436 19.1085C21.8866 19.1366 24.0649 16.953 24.0649 14.4659C24.0649 11.9787 21.9572 9.84874 19.5192 9.82323H19.499Z" fill="black"/>
</g>
<defs>
<clipPath id="clip0_272_585">
<rect width="55" height="55" fill="white"/>
</clipPath>
</defs>
</svg>
