<svg width="72" height="57" viewBox="0 0 72 57" fill="none" xmlns="http://www.w3.org/2000/svg">
<path d="M50.9228 34.9833C51.3839 34.7014 51.8144 34.4462 52.2412 34.1833C56.4323 31.5626 60.5968 28.9305 64.7917 26.3289C66.7958 25.0871 68.7733 25.2357 70.3964 26.6679C72.3739 28.4087 72.5644 31.5512 70.6288 33.3339C68.6933 35.1166 66.6168 36.7126 64.5745 38.3505C57.9703 43.6833 51.3661 48.9971 44.7619 54.2918C41.0851 57.2477 37.1416 57.8381 32.8133 55.7774C28.5917 53.7623 24.3243 51.8387 20.0989 49.8237C17.6718 48.6809 15.3629 48.7076 13.0654 50.136C12.0176 50.7836 10.9356 51.3778 9.85348 51.972C8.90857 52.4977 8.22273 52.3758 7.4988 51.553C5.1924 48.945 2.89618 46.3281 0.610106 43.7024C-0.151919 42.811 -0.22432 41.9502 0.530085 41.2721C3.52104 38.5867 6.50055 35.8898 9.57533 33.3034C11.0107 32.1244 12.8198 31.4963 14.6771 31.5322C25.2845 31.5322 35.8932 31.5322 46.5031 31.5322C48.7739 31.5474 50.1532 32.8578 50.9228 34.9833Z" fill="black"/>
<path d="M61.4845 8.29641C61.4865 10.3233 60.9753 12.3177 59.9986 14.0939C58.1406 17.5632 55.5804 20.6078 52.4812 23.034C50.9038 24.2986 49.2159 25.4223 47.5699 26.5993C47.3048 26.8308 46.9716 26.97 46.6206 26.9961C46.2695 27.0222 45.9195 26.9338 45.623 26.7441C40.4717 23.4987 35.9338 19.621 33.0038 14.1739C31.4302 11.2447 30.8016 8.2126 32.4247 5.03197C34.8213 0.323869 41.1003 -1.44357 45.543 1.42471C46.2554 1.88562 46.686 1.88181 47.448 1.42471C50.4961 -0.399868 53.6928 -0.479864 56.8286 1.23044C59.8157 2.85694 61.2978 5.47764 61.4845 8.29641Z" fill="black"/>
</svg>
