<svg width="54" height="54" viewBox="0 0 54 54" fill="none" xmlns="http://www.w3.org/2000/svg">
<path d="M33.0675 27.7262C33.9979 28.7829 35.1431 29.6294 36.4268 30.2093C37.7105 30.7891 39.1032 31.0891 40.512 31.0891C41.9209 31.0891 43.3135 30.7891 44.5972 30.2093C45.8809 29.6294 47.0261 28.7829 47.9565 27.7262C49.5345 28.7143 50.836 30.0859 51.7392 31.7128C53.4271 34.6684 54.027 37.8907 53.9991 41.2526C53.9815 41.4228 53.9243 41.5866 53.832 41.7307C53.7398 41.8749 53.615 41.9955 53.4678 42.083C52.53 42.5106 51.5491 42.8366 50.5418 43.0555C46.3517 43.7578 42.0965 43.9937 37.8543 43.7588C35.663 43.6547 33.4717 43.4694 31.2982 43.1926C30.1416 43.0453 29.0103 42.6594 27.8893 42.3039C27.2283 42.0931 26.9538 41.5954 26.9843 40.8311C27.1216 37.3879 27.7469 34.087 29.6535 31.1415C30.5098 29.7531 31.6789 28.5837 33.0675 27.7262Z" fill="black"/>
<path d="M5.94086 37.7485C9.86077 42.2658 16.7854 42.5349 20.9392 37.8755C22.2796 38.7551 23.4223 39.9034 24.2948 41.2476C25.909 43.675 26.6462 46.4022 26.8851 49.2791C26.936 49.8885 26.9309 50.503 27.0046 51.1099C27.0364 51.2559 27.0391 51.4068 27.0124 51.5539C26.9858 51.701 26.9304 51.8414 26.8494 51.9671C26.7685 52.0928 26.6635 52.2013 26.5405 52.2864C26.4175 52.3716 26.2789 52.4317 26.1327 52.4633C24.8093 52.8766 23.461 53.2057 22.0958 53.4485C17.5201 54.1366 12.9164 54.0757 8.31518 53.8294C5.99934 53.705 3.68858 53.4409 1.46425 52.7223C1.0983 52.6195 0.753864 52.4518 0.44741 52.2271C0.204212 52.0415 0.0435779 51.768 0 51.4654C0 47.527 0.706704 43.769 3.18016 40.5696C3.97329 39.5564 4.99012 38.7109 5.94086 37.7485Z" fill="black"/>
<path d="M23.1762 29.9988C21.6688 22.3202 12.7765 19.1513 6.90685 24.283C7.01108 21.2055 8.99645 16.1347 12.6927 13.9256C14.6424 16.122 17.1261 17.318 20.08 17.3154C23.0339 17.3129 25.4997 16.1804 27.4724 13.9281C28.7813 14.7439 29.9066 15.8221 30.7771 17.0945C30.9719 17.3421 31.1021 17.634 31.1563 17.9442C31.2104 18.2544 31.1867 18.5732 31.0872 18.872C30.4663 21.0226 30.6553 23.326 31.6185 25.347C31.6999 25.5171 31.7736 25.6923 31.8727 25.9158C30.4357 26.8482 29.1828 28.0369 28.1765 29.4224C28.0612 29.5395 27.9061 29.6093 27.7418 29.6179C26.2395 29.7601 24.7269 29.8744 23.1762 29.9988Z" fill="black"/>
<path d="M27.6961 7.54705C27.706 9.04721 27.271 10.5167 26.446 11.7703C25.621 13.0239 24.4429 14.0055 23.0603 14.5913C21.6776 15.1771 20.1523 15.3409 18.6766 15.062C17.2008 14.7832 15.8408 14.0742 14.7679 13.0244C13.695 11.9746 12.9573 10.631 12.6477 9.16304C12.3381 7.69505 12.4706 6.16838 13.0284 4.77549C13.5862 3.38259 14.5443 2.18583 15.782 1.33607C17.0198 0.486303 18.4816 0.0215844 19.9834 0.000492994C20.9862 -0.0109028 21.9814 0.175369 22.912 0.548645C23.8426 0.921922 24.6904 1.47487 25.4068 2.17584C26.1232 2.87681 26.6941 3.71204 27.087 4.6337C27.4798 5.55537 27.6868 6.54538 27.6961 7.54705Z" fill="black"/>
<path d="M5.88749 31.53C5.89305 30.0312 6.34358 28.5679 7.1821 27.325C8.02062 26.0822 9.20942 25.1157 10.598 24.548C11.9867 23.9803 13.5127 23.8368 14.9829 24.1357C16.4532 24.4346 17.8017 25.1625 18.8576 26.2273C19.9136 27.292 20.6296 28.6457 20.9151 30.1171C21.2005 31.5884 21.0425 33.1113 20.4611 34.493C19.8798 35.8746 18.9011 37.0529 17.649 37.8788C16.3969 38.7046 14.9277 39.1409 13.4273 39.1324C12.432 39.1294 11.4471 38.9302 10.529 38.5462C9.61097 38.1622 8.7778 37.601 8.07733 36.8947C7.37685 36.1884 6.82284 35.351 6.44706 34.4304C6.07128 33.5098 5.88113 32.5241 5.88749 31.53Z" fill="black"/>
<path d="M40.4879 13.7935C44.7077 13.7935 48.1548 17.2113 48.1141 21.3706C48.1121 22.3683 47.9134 23.3558 47.5293 24.2768C47.1453 25.1978 46.5833 26.0342 45.8756 26.7382C45.1679 27.4423 44.3283 28.0002 43.4048 28.3802C42.4812 28.7601 41.4918 28.9547 40.4929 28.9527C38.4757 28.9486 36.5427 28.1443 35.1192 26.7167C34.4144 26.0098 33.8558 25.1711 33.4754 24.2486C33.095 23.3261 32.9003 22.3378 32.9023 21.3401C32.9023 20.3465 33.0987 19.3627 33.4803 18.4451C33.8619 17.5275 34.4211 16.6942 35.1259 15.9931C35.8307 15.2919 36.6671 14.7367 37.5873 14.3592C38.5074 13.9817 39.4932 13.7895 40.4879 13.7935Z" fill="black"/>
</svg>
